<svg width="617" height="226" viewBox="0 0 617 226" fill="none" xmlns="http://www.w3.org/2000/svg">
<g clip-path="url(#clip0_117_34)">
<path d="M512.029 210.452H262.137C260.811 210.451 259.54 209.923 258.603 208.986C257.665 208.049 257.138 206.778 257.137 205.452V158.352H259.137V205.452C259.137 206.248 259.454 207.01 260.016 207.573C260.579 208.135 261.341 208.451 262.137 208.452H512.029C512.825 208.451 513.587 208.135 514.15 207.573C514.712 207.01 515.029 206.248 515.029 205.452V158.023H517.029V205.452C517.028 206.778 516.501 208.049 515.563 208.986C514.626 209.923 513.355 210.451 512.029 210.452V210.452Z" fill="#3F3D56"/>
<path d="M602.617 157.352H15.3969V159.352H602.617V157.352Z" fill="#3F3D56"/>
<path d="M15.4394 175.398C24.9398 175.398 32.6414 167.696 32.6414 158.196C32.6414 148.696 24.9398 140.994 15.4394 140.994C5.93902 140.994 -1.76257 148.696 -1.76257 158.196C-1.76257 167.696 5.93902 175.398 15.4394 175.398Z" fill="#6C63FF"/>
<path d="M190.244 175.398C199.745 175.398 207.446 167.696 207.446 158.196C207.446 148.696 199.745 140.994 190.244 140.994C180.744 140.994 173.042 148.696 173.042 158.196C173.042 167.696 180.744 175.398 190.244 175.398Z" fill="#6C63FF"/>
<path d="M308.876 225.959C318.377 225.959 326.078 218.257 326.078 208.757C326.078 199.257 318.377 191.555 308.876 191.555C299.376 191.555 291.674 199.257 291.674 208.757C291.674 218.257 299.376 225.959 308.876 225.959Z" fill="#3F3D56"/>
<path d="M399.063 225.959C408.564 225.959 416.265 218.257 416.265 208.757C416.265 199.257 408.564 191.555 399.063 191.555C389.563 191.555 381.861 199.257 381.861 208.757C381.861 218.257 389.563 225.959 399.063 225.959Z" fill="#CCCCCC"/>
<path d="M355.36 175.398C364.861 175.398 372.562 167.696 372.562 158.196C372.562 148.696 364.861 140.994 355.36 140.994C345.86 140.994 338.158 148.696 338.158 158.196C338.158 167.696 345.86 175.398 355.36 175.398Z" fill="#6C63FF"/>
<path d="M600.259 175.398C609.76 175.398 617.461 167.696 617.461 158.196C617.461 148.696 609.76 140.994 600.259 140.994C590.759 140.994 583.057 148.696 583.057 158.196C583.057 167.696 590.759 175.398 600.259 175.398Z" fill="#6C63FF"/>
<path d="M516.029 175.398C525.53 175.398 533.231 167.696 533.231 158.196C533.231 148.696 525.53 140.994 516.029 140.994C506.529 140.994 498.827 148.696 498.827 158.196C498.827 167.696 506.529 175.398 516.029 175.398Z" fill="#6C63FF"/>
<path d="M324.446 0H292.539V21.9898H324.446V0Z" fill="#3F3D56"/>
<path d="M31.5185 0H-0.387939V21.9898H31.5185V0Z" fill="#6C63FF"/>
<path d="M139.591 0H107.685V21.9898H139.591V0Z" fill="#CCCCCC"/>
<path d="M68.7821 159.352C68.5169 159.352 68.2625 159.247 68.075 159.059C67.8875 158.872 67.7821 158.617 67.7821 158.352V108.99C67.7836 107.664 68.3109 106.393 69.2483 105.456C70.1856 104.519 71.4565 103.991 72.7821 103.99H121.457C121.722 103.99 121.977 104.095 122.164 104.283C122.352 104.47 122.457 104.725 122.457 104.99C122.457 105.255 122.352 105.509 122.164 105.697C121.977 105.885 121.722 105.99 121.457 105.99H72.7821C71.9867 105.991 71.2242 106.307 70.6617 106.87C70.0993 107.432 69.783 108.194 69.7821 108.99V158.352C69.7821 158.617 69.6767 158.872 69.4892 159.059C69.3017 159.247 69.0473 159.352 68.7821 159.352V159.352Z" fill="#3F3D56"/>
<path d="M123.744 121.818C133.245 121.818 140.946 114.116 140.946 104.616C140.946 95.1155 133.245 87.4139 123.744 87.4139C114.244 87.4139 106.542 95.1155 106.542 104.616C106.542 114.116 114.244 121.818 123.744 121.818Z" fill="#E6E6E6"/>
<path d="M453.782 158.352H451.782V108.99C451.784 107.664 452.311 106.393 453.248 105.456C454.186 104.519 455.456 103.991 456.782 103.99H505.457V105.99H456.782C455.987 105.991 455.224 106.307 454.662 106.87C454.099 107.432 453.783 108.194 453.782 108.99V158.352Z" fill="#3F3D56"/>
<path d="M507.744 121.818C517.245 121.818 524.946 114.116 524.946 104.616C524.946 95.1155 517.245 87.4139 507.744 87.4139C498.244 87.4139 490.542 95.1155 490.542 104.616C490.542 114.116 498.244 121.818 507.744 121.818Z" fill="#E6E6E6"/>
</g>
<defs>
<clipPath id="clip0_117_34">
<rect width="617" height="226" fill="white"/>
</clipPath>
</defs>
</svg>
