<svg width="379" height="380" viewBox="0 0 379 380" fill="none" xmlns="http://www.w3.org/2000/svg">
<g clip-path="url(#clip0_110_21)">
<path d="M84.6448 354.68C56.161 354.68 28.025 354.68 -0.000127348 354.68C2.2528 350.137 0.166239 353.981 2.2528 350.137C8.16473 339.304 23.0493 310.664 33.2033 292.892C26.5959 292.631 33.2033 292.892 29.1472 292.651C25.2826 292.651 17.1025 292.788 11.0794 292.877C9.46411 292.901 11.0794 292.877 5.7304 292.826C5.49138 291.167 7.14172 289.217 7.86931 287.958C13.1662 278.796 18.5994 269.712 23.7694 260.478C25.3269 257.697 27.1654 256.488 30.3693 256.572C37.435 256.757 44.5106 256.532 51.5788 256.659C54.1204 256.705 55.6127 255.717 56.8473 253.554C71.1421 228.505 85.4827 203.482 99.8473 178.473C118.093 146.707 136.376 114.963 154.634 83.2051C164.719 65.6629 174.781 48.1068 184.872 30.5679C185.9 28.7797 186.732 26.8326 188.935 24.8573C228.343 93.496 267.589 161.852 306.833 230.204C304.6 231.814 302.566 231.39 300.647 231.391C239.329 231.421 178.012 231.451 116.694 231.356C113.164 231.351 110.977 232.181 109.292 235.52C106.361 241.326 102.878 246.849 99.6514 252.506C99.0858 253.497 98.3379 254.443 98.4654 256.503C116.215 256.503 134.026 256.503 151.703 256.503C152.25 258.856 151.196 259.93 150.536 261.078C145.026 270.652 139.404 280.163 133.976 289.785C132.647 292.14 130.989 292.968 128.389 292.94C112.282 292.767 96.174 292.704 80.0662 292.597C78.2519 292.584 76.5668 292.843 75.5552 294.601C71.4375 301.756 67.3253 308.914 63.2355 316.086C63.0284 316.449 63.0489 316.943 62.8939 317.729C146.786 317.729 230.452 317.729 314.898 317.729C303.226 297.329 291.892 277.52 280.607 257.795C282.045 256.319 283.512 256.657 284.853 256.656C305.717 256.63 326.582 256.685 347.445 256.58C350.508 256.565 352.247 257.646 353.748 260.343C359.065 269.893 364.657 279.29 370.126 288.755C370.689 289.729 371.621 290.571 371.385 292.3C362.197 292.906 352.886 292.154 342.995 293.113C354.743 313.668 366.185 333.689 378.182 354.68C279.773 354.68 182.383 354.68 84.6448 354.68ZM168.369 132.762C156.643 153.236 144.917 173.71 133.126 194.298C137.723 196.139 240.399 195.815 243.872 194.036C225.567 162.163 207.28 130.319 188.536 97.6821C181.557 109.832 175.097 121.079 168.369 132.762Z" fill="white"/>
<rect width="36.7638" height="73.36" transform="matrix(0.858413 -0.512959 0.509518 0.86046 260.572 224.024)" fill="white"/>
</g>
<defs>
<clipPath id="clip0_110_21">
<rect width="378.182" height="379.909" fill="white"/>
</clipPath>
</defs>
</svg>
