<svg width="612" height="369" viewBox="0 0 612 369" fill="none" xmlns="http://www.w3.org/2000/svg">
<g clip-path="url(#clip0_117_2)">
<path d="M611.723 0.347046H0.261963V391.954H611.723V0.347046Z" fill="#E6E6E6"/>
<path d="M596.238 49.464H19.746V368.786H596.238V49.464Z" fill="white"/>
<path d="M611.461 0H0V25.977H611.461V0Z" fill="#6C63FF"/>
<path d="M19.305 18.0959C21.9642 18.0959 24.12 15.9402 24.12 13.2809C24.12 10.6217 21.9642 8.46594 19.305 8.46594C16.6457 8.46594 14.49 10.6217 14.49 13.2809C14.49 15.9402 16.6457 18.0959 19.305 18.0959Z" fill="white"/>
<path d="M37.58 18.0959C40.2393 18.0959 42.395 15.9402 42.395 13.2809C42.395 10.6217 40.2393 8.46594 37.58 8.46594C34.9208 8.46594 32.765 10.6217 32.765 13.2809C32.765 15.9402 34.9208 18.0959 37.58 18.0959Z" fill="white"/>
<path d="M55.855 18.0959C58.5143 18.0959 60.67 15.9402 60.67 13.2809C60.67 10.6217 58.5143 8.46594 55.855 8.46594C53.1958 8.46594 51.04 10.6217 51.04 13.2809C51.04 15.9402 53.1958 18.0959 55.855 18.0959Z" fill="white"/>
<path d="M120.605 94.2209L82.472 131.878L120.605 169.534L129.185 160.954L100.35 132.115L129.426 103.039L120.605 94.2209Z" fill="#6C63FF"/>
<path d="M151.85 94.2209L189.982 131.878L151.85 169.534L143.27 160.954L172.107 132.116L143.029 103.039L151.85 94.2209Z" fill="#6C63FF"/>
<path d="M275.194 103.671C272.075 103.671 269.547 105.465 269.547 107.677C269.547 109.889 272.075 111.683 275.194 111.683H541.408C544.527 111.683 547.055 109.889 547.055 107.677C547.055 105.465 544.527 103.671 541.408 103.671H275.194Z" fill="#E6E6E6"/>
<path d="M538.761 323.15H90.923C86.345 323.15 82.635 320.507 82.63 317.25V238.208C82.635 234.951 86.345 232.308 90.923 232.308H538.761C543.339 232.308 547.049 234.951 547.054 238.208V317.249C547.05 320.506 543.339 323.146 538.761 323.15ZM90.923 234.666C88.176 234.666 85.95 236.252 85.947 238.206V317.247C85.947 319.201 88.176 320.785 90.923 320.787H538.761C541.508 320.787 543.734 319.201 543.737 317.247V238.208C543.737 236.254 541.508 234.67 538.761 234.668L90.923 234.666Z" fill="#E6E6E6"/>
<path d="M137.04 297.731C148.106 297.731 157.076 288.761 157.076 277.695C157.076 266.629 148.106 257.659 137.04 257.659C125.974 257.659 117.004 266.629 117.004 277.695C117.004 288.761 125.974 297.731 137.04 297.731Z" fill="#E6E6E6"/>
<path d="M193.55 261.671C192.488 261.67 191.468 262.09 190.716 262.841C189.964 263.591 189.54 264.609 189.539 265.672C189.537 266.734 189.958 267.754 190.708 268.506C191.459 269.258 192.477 269.682 193.54 269.683H382.411C383.473 269.683 384.492 269.261 385.244 268.51C385.995 267.758 386.417 266.739 386.417 265.677C386.417 264.615 385.995 263.596 385.244 262.844C384.492 262.093 383.473 261.671 382.411 261.671H193.55Z" fill="#6C63FF"/>
<path d="M193.55 285.708C193.024 285.707 192.503 285.81 192.017 286.011C191.53 286.212 191.088 286.506 190.716 286.878C189.964 287.628 189.54 288.646 189.539 289.709C189.537 290.771 189.958 291.791 190.708 292.543C191.459 293.295 192.477 293.719 193.54 293.72H274.816C275.878 293.721 276.898 293.301 277.65 292.55C278.402 291.8 278.826 290.782 278.827 289.719C278.829 288.657 278.408 287.637 277.658 286.885C276.907 286.133 275.889 285.709 274.826 285.708H193.55Z" fill="#6C63FF"/>
<path d="M273.25 127.671C272.243 127.752 271.304 128.209 270.619 128.952C269.934 129.694 269.554 130.667 269.554 131.677C269.554 132.687 269.934 133.66 270.619 134.402C271.304 135.145 272.243 135.602 273.25 135.683H447.72C448.727 135.602 449.666 135.145 450.351 134.402C451.036 133.66 451.416 132.687 451.416 131.677C451.416 130.667 451.036 129.694 450.351 128.952C449.666 128.209 448.727 127.752 447.72 127.671H273.25Z" fill="#E6E6E6"/>
<path d="M274.398 151.671C271.719 151.671 269.547 153.465 269.547 155.677C269.547 157.889 271.719 159.683 274.398 159.683H503.098C505.777 159.683 507.949 157.889 507.949 155.677C507.949 153.465 505.777 151.671 503.098 151.671H274.398Z" fill="#E6E6E6"/>
</g>
<defs>
<clipPath id="clip0_117_2">
<rect width="612" height="369" fill="white"/>
</clipPath>
</defs>
</svg>
